<svg width="16" height="16" fill="none" xmlns="http://www.w3.org/2000/svg"><path d="M16 8.182c0-.567-.052-1.113-.149-1.637H8.163v3.099h4.393c-.192.996-.771 1.84-1.64 2.407v2.014h2.65C15.109 12.67 16 10.619 16 8.183Z" fill="#4285F4"/><path d="M8.163 16c2.204 0 4.052-.713 5.403-1.934l-2.65-2.015c-.727.48-1.654.77-2.753.77-2.122 0-3.925-1.403-4.571-3.294H.876v2.066A8.174 8.174 0 0 0 8.163 16Z" fill="#34A853"/><path d="M3.592 9.52c-.163-.48-.26-.99-.26-1.52s.097-1.04.26-1.52V4.415H.876a7.773 7.773 0 0 0 0 7.17L2.99 9.971l.6-.451Z" fill="#FBBC05"/><path d="M8.163 3.185c1.203 0 2.271.408 3.125 1.193l2.337-2.29C12.208.792 10.367 0 8.163 0A8.167 8.167 0 0 0 .876 4.415L3.592 6.48c.646-1.89 2.449-3.295 4.571-3.295Z" fill="#EA4335"/></svg>